<?xml version="1.0" encoding="UTF-8"?>
<svg version="1.1" xmlns="http://www.w3.org/2000/svg" width="128" height="128">
<path d="M0 0 C42.24 0 84.48 0 128 0 C128 42.24 128 84.48 128 128 C85.76 128 43.52 128 0 128 C0 85.76 0 43.52 0 0 Z " fill="#FEFEFE" transform="translate(0,0)"/>
<path d="M0 0 C0 32.34 0 64.68 0 98 C-42.24 98 -84.48 98 -128 98 C-128 88.43 -128 78.86 -128 69 C-120.125 75.75 -120.125 75.75 -117.0625 78.875 C-116.47597656 79.47054687 -115.88945313 80.06609375 -115.28515625 80.6796875 C-114.64900391 81.33324219 -114.64900391 81.33324219 -114 82 C-109.43969176 78.19524578 -105.14910608 74.25030379 -101 70 C-96.92623969 71.61010527 -94.23492931 74.53822271 -91.25 77.625 C-90.74339844 78.140625 -90.23679688 78.65625 -89.71484375 79.1875 C-88.47196098 80.45383339 -87.23534724 81.7263144 -86 83 C-82.92341581 81.62833729 -80.82104044 80.06739558 -78.45063782 77.68441772 C-77.42223785 76.65797401 -77.42223785 76.65797401 -76.37306213 75.61079407 C-75.63160446 74.8605748 -74.89014679 74.11035553 -74.1262207 73.33740234 C-73.33720367 72.54707108 -72.54818665 71.75673981 -71.73526001 70.94245911 C-69.12747618 68.32818198 -66.52673387 65.70700956 -63.92578125 63.0859375 C-62.11836183 61.27224952 -60.31042753 59.45907452 -58.5019989 57.64639282 C-54.22863396 53.36107878 -49.95939727 49.07169802 -45.6924755 44.77997172 C-37.58970613 36.63018984 -29.47978209 28.48754927 -21.36586571 20.34886551 C-18.69501006 17.66774025 -16.02756655 14.98325362 -13.36042786 12.2984314 C-11.73559738 10.66677736 -10.1106593 9.03523046 -8.4855957 7.40380859 C-7.73806534 6.64954086 -6.99053497 5.89527313 -6.22035217 5.1181488 C-5.54321167 4.43949265 -4.86607117 3.76083649 -4.16841125 3.06161499 C-3.57720647 2.46689077 -2.98600168 1.87216656 -2.3768816 1.25942039 C-1 0 -1 0 0 0 Z " fill="#FEFEFE" transform="translate(128,30)"/>
<path d="M0 0 C4.00374431 1.83692389 6.71957934 4.49117916 9.75 7.625 C10.25660156 8.140625 10.76320313 8.65625 11.28515625 9.1875 C12.52803902 10.45383339 13.76465276 11.7263144 15 13 C18.90285767 11.41332422 21.33520982 8.86649519 24.25 5.875 C25.58804688 4.50988281 25.58804688 4.50988281 26.953125 3.1171875 C27.62859375 2.41851562 28.3040625 1.71984375 29 1 C34.66129431 5.69766975 39.85228904 10.74723372 45 16 C40.61618886 21.24471606 36.00291191 26.13522023 31.15869141 30.95483398 C30.39703674 31.71663467 29.63538208 32.47843536 28.85064697 33.26332092 C26.35331728 35.75995857 23.85247313 38.25304362 21.3515625 40.74609375 C19.61114002 42.48464954 17.87093939 44.22342744 16.13095093 45.9624176 C11.56623679 50.52332637 6.99852673 55.08122314 2.43017578 59.63848877 C-2.23717278 64.29558054 -6.90166724 68.95552903 -11.56640625 73.61523438 C-20.70815409 82.74627983 -29.85297437 91.87424173 -39 101 C-43.00374431 99.16307611 -45.71957934 96.50882084 -48.75 93.375 C-49.25660156 92.859375 -49.76320312 92.34375 -50.28515625 91.8125 C-51.52803902 90.54616661 -52.76465276 89.2736856 -54 88 C-57.90285767 89.58667578 -60.33520982 92.13350481 -63.25 95.125 C-64.58804688 96.49011719 -64.58804688 96.49011719 -65.953125 97.8828125 C-66.62859375 98.58148438 -67.3040625 99.28015625 -68 100 C-71.9282453 96.72646225 -75.77401983 93.37794615 -79.5 89.875 C-80.53640625 88.91207031 -80.53640625 88.91207031 -81.59375 87.9296875 C-83 86 -83 86 -82.78997135 84.10402298 C-81.84293693 81.58167558 -80.67438677 80.30488576 -78.76670837 78.40594482 C-78.07537308 77.71048553 -77.38403778 77.01502625 -76.67175293 76.29849243 C-75.90858765 75.54611298 -75.14542236 74.79373352 -74.35913086 74.01855469 C-73.55919205 73.2181778 -72.75925323 72.4178009 -71.93507385 71.59317017 C-69.28537835 68.9455671 -66.62520977 66.30875236 -63.96484375 63.671875 C-62.12716029 61.83978584 -60.29013743 60.00703386 -58.45375061 58.17364502 C-54.11020307 53.84038725 -49.76003963 49.51387574 -45.40660816 45.19055104 C-40.45034461 40.26782159 -35.50259868 35.33656909 -30.55555141 30.40458059 C-20.37982085 20.26020624 -10.19343274 10.12658484 0 0 Z " fill="#1003A5" transform="translate(83,13)"/>
<path d="M0 0 C3.92850364 1.82351595 6.75642069 4.35468755 9.8125 7.375 C10.5849707 8.09816406 10.5849707 8.09816406 11.37304688 8.8359375 C12.83203125 10.2734375 12.83203125 10.2734375 15 13 C14.68420544 16.1867282 13.54129803 17.83093796 11.30734253 20.04669189 C10.73550735 20.6212059 10.16367218 21.19571991 9.57450867 21.78764343 C8.9439003 22.40589493 8.31329193 23.02414642 7.66357422 23.66113281 C7.00167587 24.32186295 6.33977753 24.98259308 5.65782166 25.66334534 C3.46365792 27.85031109 1.25916817 30.02656337 -0.9453125 32.203125 C-2.47483692 33.72451053 -4.00362517 35.24663651 -5.53170776 36.76947021 C-9.56354777 40.78416999 -13.60385622 44.79023376 -17.64642334 48.79412842 C-24.0975869 55.18619589 -30.53631551 61.59078052 -36.97423935 67.99617767 C-39.21754927 70.22561083 -41.4646845 72.45112934 -43.71243286 74.67608643 C-45.10411315 76.0577311 -46.49570887 77.43946096 -47.88720703 78.82128906 C-48.50567001 79.43144363 -49.124133 80.04159821 -49.76133728 80.67024231 C-53.46796863 84.35823319 -56.95375921 88.17077356 -60.33428764 92.16057968 C-62.98095681 95.08325539 -65.94850604 97.50898452 -69 100 C-71.37432028 97.77048251 -73.72050145 95.513408 -76.0625 93.25 C-77.07666992 92.29867187 -77.07666992 92.29867187 -78.11132812 91.328125 C-78.74619141 90.709375 -79.38105469 90.090625 -80.03515625 89.453125 C-80.6269165 88.88754883 -81.21867676 88.32197266 -81.82836914 87.73925781 C-83 86 -83 86 -82.77530766 84.11592484 C-81.84411743 81.57457431 -80.68268132 80.31314233 -78.76670837 78.40594482 C-78.07537308 77.71048553 -77.38403778 77.01502625 -76.67175293 76.29849243 C-75.90858765 75.54611298 -75.14542236 74.79373352 -74.35913086 74.01855469 C-73.55919205 73.2181778 -72.75925323 72.4178009 -71.93507385 71.59317017 C-69.28537835 68.9455671 -66.62520977 66.30875236 -63.96484375 63.671875 C-62.12716029 61.83978584 -60.29013743 60.00703386 -58.45375061 58.17364502 C-54.11020307 53.84038725 -49.76003963 49.51387574 -45.40660816 45.19055104 C-40.45034461 40.26782159 -35.50259868 35.33656909 -30.55555141 30.40458059 C-20.37982085 20.26020624 -10.19343274 10.12658484 0 0 Z " fill="#080932" transform="translate(83,13)"/>
</svg>
