<?xml version="1.0" encoding="UTF-8"?>
<svg version="1.1" xmlns="http://www.w3.org/2000/svg" width="400" height="180">
<path d="M0 0 C132 0 264 0 400 0 C400 59.4 400 118.8 400 180 C268 180 136 180 0 180 C0 120.6 0 61.2 0 0 Z " fill="#FEFEFE" transform="translate(0,0)"/>
<path d="M0 0 C8.25 0 16.5 0 25 0 C25 13.53 25 27.06 25 41 C35.23 41 45.46 41 56 41 C56 27.47 56 13.94 56 0 C64.25 0 72.5 0 81 0 C81 34.65 81 69.3 81 105 C72.75 105 64.5 105 56 105 C56 90.15 56 75.3 56 60 C45.77 60 35.54 60 25 60 C25 75.18 25 90.36 25 106 C16.75 106 8.5 106 0 106 C0 71.02 0 36.04 0 0 Z " fill="#5B4380" transform="translate(19,33)"/>
<path d="M0 0 C7.46703098 6.17585687 11.88179181 15.09030467 13.6875 24.4375 C13.6875 30.7075 13.6875 36.9775 13.6875 43.4375 C-2.8125 43.4375 -19.3125 43.4375 -36.3125 43.4375 C-33.95636495 53.05569373 -33.95636495 53.05569373 -27.62890625 59.53515625 C-21.63718131 61.86920087 -13.19194121 61.55626378 -7.24609375 59.24609375 C-4.64697796 57.86867621 -4.64697796 57.86867621 -2.36328125 56.3359375 C-0.3125 55.4375 -0.3125 55.4375 1.72265625 55.9375 C4.36160482 57.95212475 5.72384688 60.22838138 7.4375 63.0625 C8.05109375 64.06539063 8.6646875 65.06828125 9.296875 66.1015625 C9.98523438 67.25785156 9.98523438 67.25785156 10.6875 68.4375 C-2.48373786 77.98187526 -16.13752474 81.49391148 -32.265625 78.9765625 C-41.67266651 76.46210172 -49.98058146 70.60780304 -55.3125 62.4375 C-61.55467907 49.37096971 -63.785088 34.4729071 -59.3125 20.4375 C-53.88144826 7.29840278 -47.23793664 -0.36327681 -34.0625 -5.9375 C-21.98394658 -7.95059224 -10.3849525 -6.87679196 0 0 Z " fill="#5B4380" transform="translate(328.3125,61.5625)"/>
<path d="M0 0 C4.8202464 4.40395239 8.49863836 9.72912606 9.27433777 16.33695984 C9.37495639 19.02388458 9.38879071 21.69798113 9.37109375 24.38671875 C9.38846271 26.39648619 9.40604721 28.40625178 9.42382812 30.41601562 C9.43392942 33.56294002 9.437488 36.70974945 9.43579102 39.85668945 C9.43935341 42.90871207 9.46665129 45.95985275 9.49609375 49.01171875 C9.48791122 49.9534343 9.4797287 50.89514984 9.47129822 51.86540222 C9.42007414 57.08931397 9.42007414 57.08931397 12.03540039 61.42504883 C12.68371826 61.94478271 13.33203613 62.4645166 14 63 C13.89019844 68.59987964 11.88399853 73.77457013 10 79 C3.60950412 78.74741123 -0.95205299 78.30922306 -6 74 C-7.875 71.75 -7.875 71.75 -9 70 C-12.71691161 71.71803914 -15.63745417 73.9979386 -18.8046875 76.5625 C-25.55343453 80.98160838 -33.22989731 80.70558107 -41 80 C-49.54794668 77.74089981 -54.4757972 72.43261889 -59 65 C-61.09941649 58.70175053 -61.08205113 50.59503904 -59.1640625 44.22265625 C-56.3386709 38.67616603 -52.36142135 35.06233962 -47 32 C-45.9171875 31.37931641 -45.9171875 31.37931641 -44.8125 30.74609375 C-35.27725269 26.36049122 -24.24530624 27.64750832 -14 28 C-14.25587405 26.22694336 -14.53027739 24.45655392 -14.8125 22.6875 C-14.96332031 21.70136719 -15.11414063 20.71523437 -15.26953125 19.69921875 C-16.04419433 16.83669369 -16.69535301 15.79379325 -19 14 C-27.18452191 9.90773905 -40.9078599 13.42522815 -49 16 C-49.86772029 13.92227529 -50.71873619 11.83756823 -51.5625 9.75 C-52.03816406 8.58984375 -52.51382813 7.4296875 -53.00390625 6.234375 C-53.95770524 3.13733356 -54.20983356 1.92678299 -53 -1 C-50.79290017 -1.65003625 -48.58426108 -2.29484745 -46.375 -2.9375 C-45.14523438 -3.29714844 -43.91546875 -3.65679687 -42.6484375 -4.02734375 C-29.4270709 -7.5520978 -11.71867168 -8.27502693 0 0 Z " fill="#5B4380" transform="translate(174,61)"/>
<path d="M0 0 C20.13 0 40.26 0 61 0 C61 18.90913129 61 18.90913129 56.93701172 23.47119141 C56.35967285 24.03757324 55.78233398 24.60395508 55.1875 25.1875 C53.98419888 26.51037567 52.78240109 27.83462019 51.58203125 29.16015625 C50.97697754 29.80098145 50.37192383 30.44180664 49.74853516 31.10205078 C47.10593768 33.97046083 44.749708 37.03498597 42.375 40.125 C36.92794389 47.09216479 31.46385556 54.04600201 26 61 C37.88 61.33 49.76 61.66 62 62 C61.34 67.94 60.68 73.88 60 80 C39.21 80 18.42 80 -3 80 C-3 60.53441813 -3 60.53441813 4.73046875 52.52734375 C8.18851591 48.83827448 11.33972711 44.94443273 14.5 41 C15.58647203 39.66604115 16.67370951 38.33270536 17.76171875 37 C22.58664966 31.0616235 27.28953704 25.02939258 32 19 C21.44 18.67 10.88 18.34 0 18 C0 12.06 0 6.12 0 0 Z " fill="#5A427F" transform="translate(198,58)"/>
<path d="M0 0 C0.33 32.01 0.66 64.02 1 97 C3.64 97.99 6.28 98.98 9 100 C10.47265625 102.5234375 10.47265625 102.5234375 11.0625 105.375 C11.38927734 106.77878906 11.38927734 106.77878906 11.72265625 108.2109375 C12.00701214 111.07051643 11.71954474 113.23252025 11 116 C3.2600686 118.90102376 -5.20868285 119.5071878 -13 116.375 C-17.80372169 113.88059039 -20.55201725 110.70471538 -23.11471558 105.9178009 C-24.39876236 101.68572275 -24.26153781 97.65123108 -24.22705078 93.25268555 C-24.22734283 92.27659836 -24.22763489 91.30051117 -24.22793579 90.29484558 C-24.22654482 87.07537888 -24.21099438 83.85614492 -24.1953125 80.63671875 C-24.19158155 78.4018415 -24.18873496 76.1669626 -24.18673706 73.93208313 C-24.1791071 68.0548347 -24.15946398 62.17768539 -24.1373291 56.30047607 C-24.11685701 50.30124248 -24.10773242 44.30199284 -24.09765625 38.30273438 C-24.07621757 26.53511274 -24.04208922 14.76756462 -24 3 C-21.94157375 2.67861284 -19.88293899 2.35856101 -17.82421875 2.0390625 C-16.67783936 1.86068848 -15.53145996 1.68231445 -14.3503418 1.49853516 C-4.27962782 0 -4.27962782 0 0 0 Z " fill="#5B4380" transform="translate(379,23)"/>
<path d="M0 0 C4.9020306 2.4510153 7.18389543 4.83843964 9 10 C9.33 13.3 9.66 16.6 10 20 C1.09 20 -7.82 20 -17 20 C-15.84269663 7.26966292 -15.84269663 7.26966292 -12 3 C-8.07324125 -0.18385844 -4.98824428 -0.6125914 0 0 Z " fill="#F8F7FA" transform="translate(309,71)"/>
<path d="M0 0 C1.27230469 0.00902344 2.54460937 0.01804687 3.85546875 0.02734375 C5.31919922 0.04474609 5.31919922 0.04474609 6.8125 0.0625 C7.85960236 13.12634847 7.85960236 13.12634847 5.5703125 17.359375 C1.85266512 20.82004215 -2.09865679 21.82579578 -7.07421875 22.25 C-9.57904835 22.02776004 -11.0730751 21.41573194 -13.1875 20.0625 C-16.15267497 15.61473754 -15.94989491 11.27728117 -15.1875 6.0625 C-10.84077977 0.18855374 -6.96988975 -0.06394394 0 0 Z " fill="#FAF9FB" transform="translate(153.1875,101.9375)"/>
</svg>
